<?xml version="1.0" encoding="utf-8"?>
<!-- Generator: Adobe Illustrator 15.0.0, SVG Export Plug-In  -->
<!DOCTYPE svg PUBLIC "-//W3C//DTD SVG 1.1//EN" "http://www.w3.org/Graphics/SVG/1.1/DTD/svg11.dtd" [
	<!ENTITY ns_flows "http://ns.adobe.com/Flows/1.0/">
]>
<svg version="1.1"
	 xmlns="http://www.w3.org/2000/svg" xmlns:xlink="http://www.w3.org/1999/xlink" xmlns:a="http://ns.adobe.com/AdobeSVGViewerExtensions/3.0/"
	 x="0px" y="0px" width="80px" height="80px" viewBox="-13.077 -3.716 80 80"
	 overflow="visible" enable-background="new -13.077 -3.716 80 80" xml:space="preserve">
<defs>
</defs>
<path fill="#FFF4EA" d="M32.562,5.178c-0.356-1.417-1.553-2.453-2.845-2.453c-0.987,0-1.878,0.605-2.551,1.721
	c-0.246,0.408-0.692,0.658-1.168,0.658c-0.476,0-0.922-0.25-1.168-0.658c-0.672-1.115-1.561-1.721-2.547-1.721
	c-1.288,0-2.488,1.036-2.844,2.453c-0.283,1.1-0.598,4.906,6.559,9.025C33.158,10.083,32.845,6.278,32.562,5.178"/>
<path fill="#00AFB0" d="M30.144,14.748c1.664-1.276,2.961-2.633,3.861-4.056c1.633-2.62,1.553-4.816,1.202-6.194
	C34.536,1.857,32.28,0,29.717,0c-1.373,0-2.665,0.545-3.719,1.552C24.944,0.545,23.655,0,22.282,0c-2.559,0-4.819,1.857-5.492,4.498
	c-0.348,1.377-0.428,3.575,1.206,6.194c0.898,1.423,2.189,2.78,3.86,4.056C9.485,16.739,0,27.484,0,40.406v31.586
	c0,2.405,2.561,4.292,5.829,4.292c3.271,0,5.834-1.887,5.834-4.292V43.729c5.913-1.656,9.536-5.14,11.702-8.307
	c1.202-1.773,2.036-3.55,2.634-5.127c0.599,1.577,1.433,3.354,2.634,5.127c2.171,3.167,5.789,6.651,11.699,8.307v28.264
	c0,2.405,2.566,4.292,5.839,4.292c3.271,0,5.828-1.887,5.828-4.292V40.406C52,27.483,42.515,16.739,30.144,14.748 M19.438,5.178
	c0.356-1.417,1.555-2.453,2.844-2.453c0.986,0,1.879,0.605,2.548,1.721c0.245,0.408,0.692,0.658,1.168,0.658
	c0.477,0,0.922-0.25,1.168-0.658c0.672-1.115,1.563-1.721,2.55-1.721c1.293,0,2.489,1.036,2.845,2.453
	c0.283,1.1,0.598,4.906-6.563,9.025C18.84,10.083,19.155,6.278,19.438,5.178 M8.928,71.992c0,0.638-1.204,1.564-3.099,1.564
	c-1.889,0-3.098-0.927-3.098-1.564v-5.357h6.196V71.992z M8.928,63.907H2.731v-8.044h6.196V63.907z M8.928,53.137H2.731v-8.465
	c0.49,0.008,0.971,0.021,1.443,0.021c1.708,0,3.292-0.122,4.753-0.371V53.137z M21.109,33.876c-2.339,3.426-5.508,5.775-9.445,7.038
	v-0.508c0-7.359,5.562-13.427,12.707-14.234C23.987,27.943,23.095,30.958,21.109,33.876 M24.636,23.388
	c-8.781,0.711-15.708,8.077-15.708,17.018v1.158c-1.909,0.345-3.979,0.467-6.196,0.365v-1.523c0-12.368,9.704-22.507,21.904-23.216
	V23.388z M40.333,40.905c-3.911-1.242-7.052-3.549-9.377-6.951c-2.021-2.923-2.936-5.996-3.322-7.782
	c7.141,0.812,12.699,6.877,12.699,14.234V40.905z M49.269,71.992c0,0.638-1.211,1.564-3.097,1.564c-1.896,0-3.099-0.927-3.099-1.564
	v-5.357h6.195V71.992z M49.269,63.907h-6.195v-8.044h6.195V63.907z M49.269,53.137h-6.195v-8.815
	c1.46,0.249,3.043,0.371,4.751,0.371c0.473,0,0.959-0.016,1.444-0.021V53.137z M49.269,41.93c-2.216,0.102-4.287-0.022-6.195-0.365
	v-1.158c0-8.941-6.928-16.307-15.71-17.018V17.19c12.201,0.709,21.905,10.848,21.905,23.216V41.93z"/>
</svg>
