<?xml version="1.0" encoding="utf-8"?>
<!-- Generator: Adobe Illustrator 15.0.0, SVG Export Plug-In  -->
<!DOCTYPE svg PUBLIC "-//W3C//DTD SVG 1.1//EN" "http://www.w3.org/Graphics/SVG/1.1/DTD/svg11.dtd" [
	<!ENTITY ns_flows "http://ns.adobe.com/Flows/1.0/">
]>
<svg version="1.1"
	 xmlns="http://www.w3.org/2000/svg" xmlns:xlink="http://www.w3.org/1999/xlink" xmlns:a="http://ns.adobe.com/AdobeSVGViewerExtensions/3.0/"
	 x="0px" y="0px" width="80px" height="80px" viewBox="-1.579 -8.371 80 80"
	 overflow="visible" enable-background="new -1.579 -8.371 80 80" xml:space="preserve">
<defs>
</defs>
<path fill="#FFF4EA" d="M54.833,7.255C53.77,3.049,50.137,0,46.208,0c-3.015,0-5.737,1.768-7.687,4.98
	c-0.257,0.425-0.721,0.685-1.221,0.685c-0.495,0-0.955-0.261-1.211-0.686C34.136,1.768,31.41,0,28.396,0
	c-3.922,0-7.548,3.049-8.62,7.255c-0.761,2.99-1.714,13.488,17.523,24.236C56.554,20.742,55.591,10.245,54.833,7.255 M28.914,4.963
	c-1.427,0.251-2.742,1.222-3.512,2.594c-0.963,1.706-1.026,3.837-0.178,6.011c0.28,0.732-0.079,1.556-0.816,1.842
	c-0.165,0.068-0.344,0.099-0.513,0.099c-0.57,0-1.11-0.347-1.33-0.91c-1.158-2.982-1.03-5.977,0.357-8.438
	c1.208-2.141,3.209-3.601,5.501-4c0.78-0.135,1.514,0.383,1.651,1.155C30.209,4.092,29.694,4.83,28.914,4.963"/>
<path fill="#00AFB0" d="M28.423,2.161c-2.292,0.4-4.294,1.86-5.501,4c-1.387,2.46-1.515,5.455-0.357,8.438
	c0.22,0.562,0.758,0.909,1.33,0.909c0.169,0,0.348-0.03,0.513-0.099c0.737-0.286,1.096-1.11,0.816-1.842
	c-0.849-2.174-0.786-4.306,0.178-6.011c0.771-1.372,2.085-2.343,3.512-2.593c0.781-0.133,1.295-0.872,1.161-1.648
	C29.937,2.544,29.203,2.026,28.423,2.161"/>
<path fill="#00AFB0" d="M8.582,18.027c-1.546,0.272-2.898,1.25-3.707,2.684c-0.921,1.633-1.008,3.608-0.247,5.562
	c0.219,0.563,0.755,0.905,1.325,0.905c0.173,0,0.349-0.03,0.518-0.093c0.732-0.286,1.094-1.112,0.81-1.843
	c-0.445-1.148-0.419-2.256,0.074-3.133c0.384-0.682,1.027-1.157,1.718-1.28c0.776-0.132,1.295-0.87,1.158-1.646
	C10.096,18.411,9.359,17.892,8.582,18.027"/>
<path fill="#00AFB0" d="M70.121,20.71c-0.806-1.433-2.156-2.411-3.707-2.683c-0.769-0.136-1.513,0.383-1.652,1.154
	c-0.133,0.776,0.383,1.515,1.162,1.646c0.698,0.124,1.332,0.6,1.718,1.282c0.493,0.876,0.517,1.985,0.072,3.133
	c-0.28,0.731,0.079,1.558,0.808,1.842c0.173,0.064,0.354,0.093,0.52,0.093c0.572,0,1.114-0.34,1.332-0.904
	C71.135,24.318,71.044,22.344,70.121,20.71"/>
<path fill="#00AFB0" d="M76.875,25.647c-0.663-4.318-3.797-7.758-7.806-8.554c-3.245-0.646-6.398,0.57-8.725,3.293
	c-0.591-0.698-1.23-1.296-1.934-1.792c0.908-3.236,0.673-5.935,0.188-7.874c-1.418-5.535-6.095-9.4-11.393-9.4
	c-3.42,0-6.527,1.618-8.908,4.601c-2.375-2.984-5.476-4.601-8.903-4.601c-5.286,0-9.971,3.865-11.378,9.4
	c-0.51,1.984-0.738,4.766,0.246,8.108c-0.575,0.449-1.118,0.969-1.62,1.557c-2.32-2.724-5.468-3.941-8.723-3.293
	c-4.005,0.796-7.139,4.235-7.798,8.554c-0.512,3.366-0.086,11.912,14.195,20.281l-2.406,2.405c-0.554,0.563-0.554,1.464,0,2.016
	c0.282,0.285,0.644,0.421,1.008,0.421c0.366,0,0.728-0.136,1.006-0.421l1.249-1.248c0.067,5.562,0.929,16.857,6.534,22.142
	c0.271,0.257,0.624,0.387,0.977,0.387c0.377,0,0.754-0.149,1.032-0.449c0.543-0.568,0.514-1.468-0.055-2.01
	c-4.814-4.54-5.564-15.017-5.631-20.167l1.342,1.346c0.554,0.556,1.456,0.556,2.009,0c0.558-0.552,0.558-1.452,0-2.016l-2.407-2.408
	c5.782-3.396,9.974-7.259,12.279-11.311c1.456,1.015,3.023,2.014,4.707,2.984l-2.331,2.327c-0.559,0.562-0.559,1.465,0,2.009
	c0.558,0.563,1.459,0.563,2.013,0l1.296-1.287v29.555c0,0.792,0.639,1.427,1.429,1.427c0.787,0,1.424-0.635,1.424-1.427V40.647
	l1.302,1.287c0.275,0.29,0.636,0.427,0.997,0.427s0.731-0.137,1.015-0.427c0.545-0.544,0.545-1.446,0-2.009l-2.388-2.367
	c1.766-1.027,3.397-2.074,4.914-3.142c2.283,4.125,6.512,8.053,12.382,11.508l-2.406,2.408c-0.549,0.563-0.549,1.464,0,2.016
	c0.559,0.556,1.46,0.556,2.022,0l1.339-1.345c-0.062,5.151-0.813,15.626-5.626,20.166c-0.585,0.542-0.599,1.441-0.067,2.01
	c0.286,0.3,0.665,0.449,1.044,0.449c0.343,0,0.688-0.13,0.975-0.387c5.596-5.284,6.467-16.579,6.529-22.142l1.24,1.248
	c0.282,0.285,0.653,0.421,1.016,0.421c0.359,0,0.721-0.136,1.001-0.421c0.557-0.552,0.557-1.452,0.001-2.016l-2.405-2.405
	C76.957,37.559,77.391,29.013,76.875,25.647 M20.776,11.424c1.072-4.206,4.698-7.255,8.621-7.255c3.013,0,5.74,1.768,7.691,4.98
	c0.255,0.425,0.716,0.686,1.21,0.686H38.3c0.499,0,0.963-0.261,1.22-0.686c1.95-3.212,4.673-4.98,7.688-4.98
	c3.929,0,7.562,3.049,8.626,7.255c0.759,2.989,1.721,13.487-17.534,24.235C19.062,24.912,20.015,14.413,20.776,11.424
	 M16.646,43.985c-5.228-2.943-9.056-6.161-11.379-9.576c-1.925-2.831-2.729-5.708-2.329-8.331c0.479-3.143,2.705-5.632,5.539-6.196
	c2.681-0.531,5.217,0.808,6.955,3.676c0.258,0.422,0.719,0.683,1.214,0.683c0.5,0,0.964-0.26,1.221-0.682
	c0.446-0.741,0.946-1.371,1.484-1.902c0.374,0.789,0.818,1.604,1.342,2.435c1.928,3.082,4.695,6.031,8.25,8.817
	C26.834,36.815,22.619,40.631,16.646,43.985 M60.345,43.985c-6.084-3.414-10.34-7.304-12.41-11.291
	c3.431-2.725,6.094-5.598,7.977-8.603c0.592-0.919,1.062-1.817,1.464-2.688c0.641,0.576,1.234,1.295,1.76,2.155
	c0.251,0.422,0.715,0.682,1.21,0.682c0.506,0,0.969-0.261,1.218-0.683c1.737-2.869,4.272-4.207,6.962-3.676
	c2.828,0.564,5.055,3.053,5.532,6.196c0.407,2.624-0.404,5.5-2.329,8.331C69.408,37.824,65.582,41.042,60.345,43.985"/>
</svg>
