<?xml version="1.0" encoding="utf-8"?>
<!-- Generator: Adobe Illustrator 15.0.0, SVG Export Plug-In  -->
<!DOCTYPE svg PUBLIC "-//W3C//DTD SVG 1.1//EN" "http://www.w3.org/Graphics/SVG/1.1/DTD/svg11.dtd" [
	<!ENTITY ns_flows "http://ns.adobe.com/Flows/1.0/">
]>
<svg version="1.1"
	 xmlns="http://www.w3.org/2000/svg" xmlns:xlink="http://www.w3.org/1999/xlink" xmlns:a="http://ns.adobe.com/AdobeSVGViewerExtensions/3.0/"
	 x="0px" y="0px" width="80px" height="80px" viewBox="-17.733 -2 80 80"
	 overflow="visible" enable-background="new -17.733 -2 80 80" xml:space="preserve">
<defs>
</defs>
<path fill="#FFF4EA" d="M19.89,13.002c1.311-1.012,3.571-1.849,7.235-0.689c3.667-1.159,5.927-0.323,7.237,0.689l1.017-2.57
	L30.21,7.827c-0.471-0.236-0.766-0.724-0.766-1.256v-3.77h-4.639v3.77c0,0.532-0.296,1.02-0.766,1.256l-5.161,2.605L19.89,13.002z"
	/>
<path fill="#3EBAC4" d="M32.798,28.583c0.307-1.692,1.071-4.532,2.439-6.109c1.464-1.72,1.836-4.474,1.064-6.728l2.144-5.478
	c0.276-0.67-0.013-1.438-0.669-1.759l-5.531-2.798V1.4c0-0.772-0.633-1.4-1.412-1.4h-7.421c-0.774,0-1.407,0.628-1.407,1.4v4.311
	l-5.531,2.798c-0.647,0.321-0.946,1.089-0.68,1.76l2.163,5.475c-0.792,2.255-0.411,5.01,1.061,6.729
	c1.434,1.676,2.169,4.578,2.454,6.109C9.222,31.19,0,42.087,0,55.11v11.416c0,0.771,0.633,1.39,1.401,1.39h24.315v5.247
	c-0.107,1.219-1.183,2.122-2.403,2.028c-0.977-0.074-1.792-0.766-2.02-1.724c-0.178-0.757-0.934-1.219-1.69-1.034
	c-0.757,0.188-1.219,0.944-1.034,1.695c0.509,2.146,2.332,3.684,4.538,3.852C23.229,77.994,23.36,78,23.489,78
	c1.408,0,2.706-0.589,3.637-1.562C28.055,77.411,29.354,78,30.759,78c0.137,0,0.262-0.006,0.383-0.02
	c2.197-0.168,4.02-1.706,4.549-3.852c0.17-0.751-0.297-1.507-1.048-1.694c-0.75-0.186-1.506,0.276-1.69,1.033
	c-0.229,0.958-1.039,1.649-2.015,1.724c-1.225,0.095-2.296-0.811-2.403-2.028v-5.247H52.84c0.776,0,1.41-0.618,1.41-1.39V55.11
	C54.25,42.095,45.04,31.201,32.798,28.583 M24.806,6.57V2.801h4.639V6.57c0,0.533,0.295,1.021,0.766,1.256l5.169,2.606l-1.018,2.57
	c-1.31-1.012-3.571-1.85-7.237-0.69c-3.664-1.159-5.924-0.323-7.234,0.69l-1.011-2.57l5.161-2.606
	C24.51,7.591,24.806,7.103,24.806,6.57 M21.147,20.65c-0.875-1.021-1.125-3.34-0.139-4.799c1.204-1.786,3.663-1.413,5.524-0.788
	c0.188,0.072,0.402,0.085,0.592,0.069c0.191,0.016,0.403,0.003,0.593-0.069c1.86-0.625,4.321-0.998,5.535,0.788
	c0.985,1.459,0.726,3.779-0.147,4.799c-1.947,2.265-2.772,5.733-3.086,7.495c-0.951-0.099-1.92-0.156-2.894-0.156
	c-0.976,0-1.942,0.057-2.895,0.156C23.919,26.383,23.094,22.915,21.147,20.65 M51.449,65.115H2.807V55.11
	c0-8.718,4.612-16.383,11.535-20.672c-2.775,3.819-5.566,10.32-5.385,20.959c0.018,0.767,0.636,1.38,1.4,1.38
	c0.011,0,0.021,0,0.029,0c0.771-0.018,1.389-0.664,1.372-1.438c-0.15-8.76,1.827-15.789,5.706-20.341
	c1.654-1.945,3.344-3.055,4.487-3.645c1.667-0.37,3.392-0.561,5.175-0.561c1.789,0,3.522,0.193,5.195,0.565
	c3.15,1.644,10.458,7.275,10.161,23.981c-0.008,0.774,0.602,1.421,1.379,1.438c0.01,0,0.021,0,0.032,0
	c0.763,0,1.393-0.613,1.399-1.38c0.18-10.639-2.601-17.14-5.384-20.959c6.913,4.289,11.54,11.954,11.54,20.672V65.115z"/>
</svg>
