<?xml version="1.0" encoding="utf-8"?>
<!-- Generator: Adobe Illustrator 15.0.0, SVG Export Plug-In  -->
<!DOCTYPE svg PUBLIC "-//W3C//DTD SVG 1.1//EN" "http://www.w3.org/Graphics/SVG/1.1/DTD/svg11.dtd" [
	<!ENTITY ns_flows "http://ns.adobe.com/Flows/1.0/">
]>
<svg version="1.1"
	 xmlns="http://www.w3.org/2000/svg" xmlns:xlink="http://www.w3.org/1999/xlink" xmlns:a="http://ns.adobe.com/AdobeSVGViewerExtensions/3.0/"
	 x="0px" y="0px" width="80px" height="80px" viewBox="-5.025 0.014 80 80"
	 overflow="visible" enable-background="new -5.025 0.014 80 80" xml:space="preserve">
<defs>
</defs>
<path fill="#FFF4EA" d="M57.048,36.732V21.039h-16.28c-0.877,0-1.588-0.71-1.588-1.586V3.172H12.182v33.56l22.432,17.046
	L57.048,36.732z M33.854,44.221c-4.185-2.282-7.198-4.861-8.956-7.665c-1.986-3.167-1.895-5.823-1.469-7.493
	c0.818-3.206,3.549-5.443,6.641-5.443c1.681,0,3.264,0.686,4.544,1.933c1.28-1.247,2.862-1.933,4.545-1.933
	c3.093,0,5.824,2.239,6.642,5.443c0.427,1.671,0.518,4.326-1.469,7.494c-1.76,2.803-4.774,5.382-8.959,7.665
	c-0.236,0.13-0.497,0.194-0.761,0.194C34.351,44.416,34.089,44.351,33.854,44.221"/>
<path fill="#00AFB0" d="M66.5,31.089c-0.004-0.003-0.006-0.006-0.009-0.009l-6.271-5.101v-6.527c0-0.42-0.165-0.825-0.463-1.122
	L41.889,0.464C41.591,0.167,41.188,0,40.767,0H10.595C9.719,0,9.009,0.709,9.009,1.586v24.447c-0.073,0.042-0.145,0.088-0.212,0.144
	l-6.055,4.901c-0.002,0.002-0.004,0.005-0.007,0.007C0.997,32.471,0,34.537,0,36.759V72.74c0,4.001,3.255,7.257,7.256,7.257h54.718
	c4.001,0,7.256-3.256,7.256-7.257V36.759C69.23,34.54,68.235,32.475,66.5,31.089 M60.219,30.07l2.703,2.198l-2.703,2.054V30.07z
	 M12.182,3.173h27v16.28c0,0.875,0.709,1.586,1.585,1.586h16.28v15.693L34.615,53.778L12.182,36.732V3.173z M42.355,5.416
	l12.449,12.45H42.355V5.416z M9.009,30.086v4.236l-2.698-2.05L9.009,30.086z M3.172,72.74V36.759c0-0.849,0.259-1.656,0.73-2.333
	L31.874,55.68L3.535,74.413C3.303,73.903,3.172,73.336,3.172,72.74 M61.974,76.823H7.256c-0.452,0-0.885-0.076-1.291-0.211
	l28.65-18.94l28.649,18.94C62.859,76.747,62.425,76.823,61.974,76.823 M66.058,72.74c0,0.597-0.133,1.163-0.363,1.673L37.354,55.68
	l27.974-21.254c0.472,0.676,0.73,1.484,0.73,2.333V72.74z"/>
<path fill="#00AFB0" d="M44.33,36.556c1.988-3.167,1.897-5.823,1.471-7.493c-0.817-3.205-3.549-5.443-6.642-5.443
	c-1.683,0-3.265,0.686-4.545,1.933c-1.28-1.247-2.863-1.933-4.544-1.933c-3.092,0-5.823,2.239-6.641,5.443
	c-0.426,1.669-0.517,4.326,1.469,7.492c1.757,2.804,4.771,5.384,8.956,7.666c0.235,0.13,0.497,0.194,0.758,0.194
	c0.264,0,0.524-0.064,0.761-0.194C39.557,41.939,42.572,39.359,44.33,36.556 M26.504,29.847c0.452-1.77,1.951-3.055,3.566-3.055
	c1.224,0,2.355,0.755,3.187,2.126c0.287,0.475,0.802,0.766,1.355,0.766c0.556,0,1.07-0.291,1.358-0.765
	c0.83-1.372,1.963-2.127,3.188-2.127c1.616,0,3.116,1.285,3.567,3.055c0.345,1.353,0.74,6.07-8.112,11.165
	C25.763,35.917,26.159,31.199,26.504,29.847"/>
</svg>
