<?xml version="1.0" encoding="utf-8"?>
<!-- Generator: Adobe Illustrator 15.0.0, SVG Export Plug-In  -->
<!DOCTYPE svg PUBLIC "-//W3C//DTD SVG 1.1//EN" "http://www.w3.org/Graphics/SVG/1.1/DTD/svg11.dtd" [
	<!ENTITY ns_flows "http://ns.adobe.com/Flows/1.0/">
]>
<svg version="1.1"
	 xmlns="http://www.w3.org/2000/svg" xmlns:xlink="http://www.w3.org/1999/xlink" xmlns:a="http://ns.adobe.com/AdobeSVGViewerExtensions/3.0/"
	 x="0px" y="0px" width="80px" height="80px" viewBox="-19.662 -3.001 80 80"
	 overflow="visible" enable-background="new -19.662 -3.001 80 80" xml:space="preserve">
<defs>
</defs>
<path fill="#FFF4EA" d="M20.29,53.394h2.143L19.126,39.08c-0.192-0.825,0.325-1.655,1.155-1.848
	c0.833-0.192,1.663,0.324,1.849,1.156l3.409,14.721l3.411-14.721c0.187-0.832,1.018-1.347,1.848-1.156
	c0.832,0.193,1.348,1.023,1.16,1.848l-3.311,14.314h2.142L44.623,29.96H6.455L20.29,53.394z"/>
<path fill="#FFF4EA" d="M27.079,56.485v10.319c0,0.848-0.683,1.541-1.54,1.541c-0.856,0-1.543-0.693-1.543-1.541V56.485h-3.174
	l-1.478,17.423h12.397l-1.49-17.423H27.079z"/>
<path fill="#3EBAC4" d="M48.258,27.182c1.742-1.73,2.816-4.121,2.816-6.763c0-3.456-1.877-6.65-4.896-8.336
	c-0.743-0.413-1.666-0.154-2.096,0.574l-2.55,4.423l-1.118-1.94c1.705-1.767,2.669-4.108,2.669-6.608
	c0-3.456-1.878-6.65-4.903-8.336c-0.734-0.411-1.67-0.154-2.088,0.576l-2.551,4.422l-2.553-4.422
	c-0.428-0.729-1.354-0.986-2.098-0.576c-1.378,0.77-2.516,1.862-3.349,3.147c-0.835-1.286-1.978-2.376-3.355-3.147
	c-0.742-0.411-1.67-0.154-2.093,0.576l-2.551,4.422L14.99,0.771c-0.422-0.729-1.352-0.986-2.091-0.576
	c-3.021,1.686-4.899,4.88-4.899,8.336c0,2.486,0.959,4.841,2.663,6.611L9.543,17.08L6.99,12.657
	c-0.42-0.728-1.352-0.986-2.087-0.574C1.878,13.769,0,16.963,0,20.419c0,2.642,1.081,5.034,2.821,6.763
	c-0.164,0.127-0.308,0.282-0.415,0.469c-0.274,0.482-0.27,1.073,0.012,1.55l15.406,26.102L16.121,75.32
	c-0.037,0.435,0.111,0.862,0.403,1.182c0.292,0.315,0.704,0.497,1.136,0.497h15.755c0.432,0,0.848-0.182,1.139-0.497
	c0.291-0.319,0.436-0.747,0.405-1.182l-1.711-20.018l15.412-26.102c0.284-0.477,0.29-1.066,0.006-1.55
	C48.567,27.464,48.426,27.307,48.258,27.182 M29.164,3.79l3.031,5.262c0.283,0.478,0.791,0.773,1.347,0.773
	c0.544,0,1.058-0.295,1.335-0.773L37.91,3.79c1.31,1.208,2.083,2.92,2.083,4.741c0,1.398-0.441,2.724-1.253,3.815
	c-0.469-0.483-1.224-0.61-1.847-0.264c-1.387,0.77-2.52,1.856-3.354,3.141c-0.834-1.284-1.974-2.372-3.36-3.141
	c-0.619-0.345-1.371-0.22-1.846,0.263c-0.804-1.095-1.255-2.425-1.255-3.814C27.079,6.712,27.852,4.999,29.164,3.79 M19.344,73.908
	l1.479-17.423h3.173v10.319c0,0.848,0.687,1.542,1.544,1.542s1.539-0.694,1.539-1.542V56.485h3.172l1.49,17.423H19.344z
	 M30.789,53.394h-2.142l3.312-14.314c0.187-0.825-0.328-1.655-1.162-1.848c-0.829-0.191-1.66,0.324-1.847,1.156l-3.41,14.721
	l-3.41-14.721c-0.188-0.832-1.017-1.348-1.849-1.156c-0.831,0.193-1.347,1.023-1.155,1.848l3.307,14.314h-2.142L6.455,29.96h38.168
	L30.789,53.394z M16.559,26.87c0.358-0.389,0.688-0.811,0.982-1.259c0.29,0.448,0.62,0.87,0.983,1.259H16.559z M32.56,26.87
	c0.358-0.389,0.687-0.812,0.982-1.26c0.291,0.448,0.615,0.87,0.982,1.26H32.56z M25.543,13.738c0.328,0.497,0.706,0.964,1.116,1.399
	L25.54,17.08l-1.118-1.941C24.836,14.706,25.213,14.235,25.543,13.738 M24.205,20.939c0.271,0.476,0.778,0.772,1.335,0.772
	c0.556,0,1.063-0.296,1.334-0.772l3.044-5.263c1.3,1.209,2.073,2.92,2.073,4.742c0,3.557-2.889,6.451-6.451,6.451
	s-6.452-2.895-6.452-6.451c0-1.822,0.767-3.533,2.074-4.742L24.205,20.939z M13.166,3.79l3.036,5.262
	c0.278,0.478,0.787,0.773,1.342,0.773c0.55,0,1.059-0.295,1.335-0.773l3.036-5.262c1.312,1.208,2.081,2.92,2.081,4.741
	c0,1.398-0.45,2.722-1.251,3.814c-0.479-0.483-1.23-0.608-1.849-0.263c-1.383,0.771-2.521,1.861-3.354,3.146
	c-0.833-1.285-1.974-2.376-3.356-3.146c-0.62-0.345-1.373-0.22-1.849,0.262c-0.803-1.094-1.25-2.424-1.25-3.813
	C11.087,6.71,11.859,4.999,13.166,3.79 M5.169,15.677l3.037,5.263c0.276,0.476,0.785,0.772,1.336,0.772
	c0.554,0,1.061-0.296,1.339-0.772l3.037-5.263c1.305,1.209,2.079,2.92,2.079,4.742c0,3.557-2.895,6.451-6.455,6.451
	c-3.558,0-6.453-2.895-6.453-6.451C3.09,18.597,3.861,16.886,5.169,15.677 M41.533,26.87c-3.552,0-6.452-2.895-6.452-6.451
	c0-1.822,0.774-3.533,2.076-4.742l3.039,5.263c0.273,0.476,0.792,0.772,1.337,0.772c0.556,0,1.062-0.296,1.339-0.772l3.039-5.263
	c1.311,1.208,2.075,2.919,2.075,4.742C47.986,23.976,45.095,26.87,41.533,26.87"/>
</svg>
