<?xml version="1.0" encoding="utf-8"?>
<!-- Generator: Adobe Illustrator 15.0.0, SVG Export Plug-In  -->
<!DOCTYPE svg PUBLIC "-//W3C//DTD SVG 1.1//EN" "http://www.w3.org/Graphics/SVG/1.1/DTD/svg11.dtd" [
	<!ENTITY ns_flows "http://ns.adobe.com/Flows/1.0/">
]>
<svg version="1.1"
	 xmlns="http://www.w3.org/2000/svg" xmlns:xlink="http://www.w3.org/1999/xlink" xmlns:a="http://ns.adobe.com/AdobeSVGViewerExtensions/3.0/"
	 x="0px" y="0px" width="80px" height="80px" viewBox="0.142 -11.285 80 80"
	 overflow="visible" enable-background="new 0.142 -11.285 80 80" xml:space="preserve">
<defs>
</defs>
<path fill="#FFF4EA" d="M76.498,32.312C75.048,26.428,69.976,22.14,64.44,22.14c-4.136,0-7.885,2.388-10.55,6.694
	c-0.29,0.437-0.778,0.715-1.306,0.715c-0.539,0-1.016-0.278-1.283-0.715c-2.693-4.307-6.442-6.694-10.569-6.694
	c-5.529,0-10.606,4.288-12.071,10.172c-1.004,4.051-2.218,18.274,23.923,32.39C78.727,50.587,77.505,36.362,76.498,32.312
	 M41.18,28.768c-2.013,0.385-3.874,1.771-4.955,3.737c-1.308,2.396-1.366,5.38-0.156,8.364c0.312,0.781-0.056,1.691-0.835,2.006
	c-0.186,0.075-0.379,0.126-0.57,0.126c-0.604,0-1.17-0.377-1.414-0.966c-1.562-3.877-1.453-7.791,0.312-11.005
	c1.492-2.737,4.142-4.718,7.051-5.265c0.821-0.154,1.638,0.39,1.794,1.204C42.564,27.819,42.017,28.611,41.18,28.768"/>
<path fill="#00AFB0" d="M20.004,7.699c-4.384,0.838-8.356,3.806-10.63,7.95c-2.68,4.919-2.842,10.854-0.451,16.788
	c0.237,0.594,0.811,0.938,1.409,0.938c0.193,0,0.387-0.01,0.575-0.085c0.78-0.315,1.157-1.225,0.842-2.005
	c-2.044-5.046-1.935-10.092,0.3-14.154c1.838-3.359,5.023-5.779,8.516-6.414c0.827-0.156,1.373-0.966,1.217-1.788
	C21.625,8.083,20.831,7.545,20.004,7.699"/>
<path fill="#00AFB0" d="M40.614,25.766c-2.909,0.548-5.559,2.527-7.051,5.265c-1.765,3.214-1.874,7.128-0.312,11.005
	c0.243,0.589,0.81,0.966,1.414,0.966c0.191,0,0.384-0.051,0.569-0.126c0.78-0.314,1.148-1.225,0.836-2.006
	c-1.21-2.984-1.152-5.968,0.156-8.364c1.082-1.966,2.942-3.353,4.955-3.737c0.837-0.156,1.384-0.949,1.228-1.798
	C42.251,26.154,41.435,25.612,40.614,25.766"/>
<path fill="#00AFB0" d="M79.458,31.58c-0.469-1.876-1.252-3.675-2.287-5.27c0.556-5.737-0.636-11.167-3.497-15.782
	c-2.73-4.413-6.812-7.764-11.499-9.406c-6.886-2.42-16.484-1.376-23.528,8.276c-2.578-3.519-5.638-6.099-9.133-7.69
	c-3.749-1.686-7.856-2.143-11.886-1.288C8.601,2.362,1.617,10.186,0.252,19.958c-1.062,7.604,1.25,15.729,6.683,23.514
	c6.109,8.74,16.27,17.264,31.006,25.074c0.22,0.113,0.467,0.169,0.706,0.169c0.249,0,0.496-0.056,0.716-0.169
	c2.42-1.282,4.764-2.606,6.964-3.947c1.734,1.077,3.594,2.144,5.544,3.169c0.226,0.118,0.467,0.174,0.714,0.174
	c0.241,0,0.478-0.056,0.71-0.174c10.549-5.59,18.13-11.884,22.54-18.754C80.562,41.612,80.419,35.447,79.458,31.58 M52.584,64.701
	C26.443,50.586,27.657,36.362,28.661,32.312c1.465-5.885,6.542-10.173,12.071-10.173c4.126,0,7.875,2.388,10.569,6.694
	c0.268,0.437,0.744,0.715,1.283,0.715c0.527,0,1.016-0.278,1.306-0.715c2.665-4.307,6.414-6.694,10.55-6.694
	c5.536,0,10.608,4.288,12.058,10.172C77.505,36.362,78.727,50.587,52.584,64.701 M38.647,65.471
	c-13.396-7.187-23.22-15.178-29.213-23.747C4.45,34.582,2.318,27.206,3.269,20.407c1.191-8.511,7.214-15.34,14.991-16.995
	c7.388-1.575,14.354,1.916,19.098,9.504c0.273,0.463,0.768,0.732,1.289,0.732c0.531,0,1.016-0.27,1.302-0.732
	c5.223-8.392,13.166-11.724,21.215-8.91c6.453,2.265,12.826,9.017,13.072,18.906c-0.122-0.104-0.265-0.234-0.414-0.348
	c-2.723-2.23-6.067-3.474-9.382-3.474c-4.581,0-8.722,2.214-11.855,6.246c-3.145-4.032-7.286-6.246-11.852-6.246
	c-3.335,0-6.664,1.243-9.387,3.474c-2.754,2.257-4.759,5.457-5.64,9.015c-0.962,3.867-1.114,10.032,3.633,17.434
	c3.125,4.877,7.863,9.474,14.151,13.748C41.935,63.67,40.309,64.574,38.647,65.471"/>
</svg>
