<?xml version="1.0" encoding="utf-8"?>
<!-- Generator: Adobe Illustrator 15.0.0, SVG Export Plug-In  -->
<!DOCTYPE svg PUBLIC "-//W3C//DTD SVG 1.1//EN" "http://www.w3.org/Graphics/SVG/1.1/DTD/svg11.dtd" [
	<!ENTITY ns_flows "http://ns.adobe.com/Flows/1.0/">
]>
<svg version="1.1"
	 xmlns="http://www.w3.org/2000/svg" xmlns:xlink="http://www.w3.org/1999/xlink" xmlns:a="http://ns.adobe.com/AdobeSVGViewerExtensions/3.0/"
	 x="0px" y="0px" width="80px" height="80px" viewBox="-7.335 -1.082 80 80"
	 overflow="visible" enable-background="new -7.335 -1.082 80 80" xml:space="preserve">
<defs>
</defs>
<path fill="#FFF4EA" d="M20.427,62.795c-0.474-1.862-2.052-3.212-3.75-3.212c-1.288,0-2.479,0.79-3.352,2.229
	c-0.295,0.493-0.825,0.791-1.397,0.791h-0.001c-0.572,0-1.102-0.298-1.399-0.791c-0.873-1.438-2.061-2.229-3.35-2.229
	c-1.696,0-3.274,1.349-3.748,3.212c-0.363,1.416-0.779,6.362,8.499,11.696C21.205,69.157,20.789,64.211,20.427,62.795"/>
<path fill="#FFF4EA" d="M63.434,54.783c-0.477-1.863-2.051-3.212-3.752-3.212c-1.289,0-2.476,0.794-3.354,2.235
	c-0.294,0.485-0.824,0.784-1.393,0.784h-0.001c-0.575,0-1.104-0.299-1.4-0.784c-0.872-1.441-2.062-2.235-3.35-2.235
	c-1.7,0-3.275,1.348-3.751,3.212c-0.359,1.416-0.779,6.361,8.502,11.697C64.212,61.145,63.793,56.199,63.434,54.783"/>
<path fill="#3EBAC4" d="M66.86,55.86V1.636c0-0.006,0-0.345-0.141-0.665c-0.363-0.827-1.336-1.195-2.162-0.83L21.553,19.295
	c-0.619,0.276-0.982,0.892-0.97,1.529v0.003V57.56c-1.136-0.79-2.482-1.246-3.905-1.246c-1.76,0-3.412,0.718-4.75,2.028
	c-1.336-1.311-2.991-2.028-4.75-2.028c-3.22,0-6.064,2.331-6.917,5.67c-0.445,1.74-0.54,4.512,1.532,7.817
	c1.836,2.923,4.981,5.618,9.35,8.002C11.388,77.936,11.658,78,11.928,78c0.269,0,0.539-0.064,0.781-0.197
	c4.369-2.384,7.519-5.079,9.355-8.001c1.434-2.288,1.829-4.323,1.791-5.934V38.88l39.734-17.656v28.323
	c-1.135-0.791-2.48-1.245-3.907-1.245c-1.759,0-3.413,0.717-4.746,2.027c-1.34-1.311-2.992-2.027-4.751-2.027
	c-3.224,0-6.063,2.329-6.917,5.669c-0.442,1.745-0.538,4.512,1.534,7.817c1.836,2.923,4.977,5.618,9.349,8.004
	c0.245,0.131,0.513,0.197,0.785,0.197c0.266,0,0.539-0.066,0.778-0.197c4.372-2.386,7.521-5.081,9.358-8.004
	C66.506,59.501,66.901,57.469,66.86,55.86 M3.429,62.795c0.474-1.862,2.052-3.211,3.748-3.211c1.289,0,2.477,0.789,3.35,2.228
	c0.298,0.493,0.828,0.792,1.4,0.792h0.001c0.572,0,1.102-0.299,1.397-0.791c0.872-1.438,2.064-2.229,3.353-2.229
	c1.698,0,3.276,1.349,3.75,3.211c0.362,1.416,0.777,6.362-8.5,11.696C2.65,69.157,3.066,64.211,3.429,62.795 M46.434,54.783
	c0.476-1.864,2.051-3.212,3.751-3.212c1.288,0,2.478,0.794,3.35,2.235c0.295,0.485,0.826,0.784,1.401,0.784
	c0.568,0,1.099-0.298,1.394-0.783c0.876-1.442,2.063-2.236,3.353-2.236c1.701,0,3.276,1.349,3.751,3.212
	c0.361,1.415,0.779,6.361-8.497,11.696C45.655,61.145,46.074,56.198,46.434,54.783 M23.854,35.302V21.851L63.589,4.154v13.492
	L23.854,35.302z"/>
</svg>
