<?xml version="1.0" encoding="utf-8"?>
<!-- Generator: Adobe Illustrator 15.0.0, SVG Export Plug-In  -->
<!DOCTYPE svg PUBLIC "-//W3C//DTD SVG 1.1//EN" "http://www.w3.org/Graphics/SVG/1.1/DTD/svg11.dtd" [
	<!ENTITY ns_flows "http://ns.adobe.com/Flows/1.0/">
]>
<svg version="1.1"
	 xmlns="http://www.w3.org/2000/svg" xmlns:xlink="http://www.w3.org/1999/xlink" xmlns:a="http://ns.adobe.com/AdobeSVGViewerExtensions/3.0/"
	 x="0px" y="0px" width="80px" height="80px" viewBox="0.131 -11.134 80 80"
	 overflow="visible" enable-background="new 0.131 -11.134 80 80" xml:space="preserve">
<defs>
</defs>
<path fill="#FFF4EA" d="M19.484,11.079H3.824c-1.056,0-1.926,0.865-1.926,1.926v26.487h19.511V13.005
	C21.409,11.944,20.551,11.079,19.484,11.079"/>
<path fill="#00AFB0" d="M19.483,9.18H4.96H3.823C1.725,9.18,0,10.894,0,13.005v51.937c0,2.109,1.725,3.827,3.823,3.827h15.66
	c2.12,0,3.823-1.718,3.823-3.827V13.005C23.307,10.894,21.604,9.18,19.483,9.18 M21.409,39.492H1.898V13.005
	c0-1.061,0.869-1.926,1.925-1.926H4.96h14.523c1.067,0,1.926,0.865,1.926,1.926V39.492z M21.409,64.941
	c0,1.058-0.858,1.922-1.926,1.922H3.823c-1.056,0-1.925-0.864-1.925-1.922V41.396h19.511V64.941z"/>
<path fill="#00AFB0" d="M8.493,48.009h6.331c0.521,0,0.957-0.42,0.957-0.958c0-0.53-0.437-0.944-0.957-0.944H8.493
	c-0.528,0-0.953,0.414-0.953,0.944C7.54,47.589,7.965,48.009,8.493,48.009"/>
<path fill="#00AFB0" d="M8.493,61.97h6.331c0.521,0,0.957-0.438,0.957-0.955c0-0.527-0.437-0.955-0.957-0.955H8.493
	c-0.528,0-0.953,0.428-0.953,0.955C7.54,61.532,7.965,61.97,8.493,61.97"/>
<path fill="#00AFB0" d="M8.493,54.983h6.331c0.521,0,0.957-0.433,0.957-0.957c0-0.516-0.437-0.953-0.957-0.953H8.493
	c-0.528,0-0.953,0.438-0.953,0.953C7.54,54.551,7.965,54.983,8.493,54.983"/>
<path fill="#FFF4EA" d="M49.18,2.347H29.834c-1.304,0-2.366,1.063-2.366,2.375v28.014h24.068V4.722
	C51.536,3.41,50.48,2.347,49.18,2.347"/>
<path fill="#00AFB0" d="M49.18,0H31.247h-1.414c-2.601,0-4.713,2.112-4.713,4.722V64.16c0,2.595,2.112,4.706,4.713,4.706H49.18
	c2.59,0,4.725-2.111,4.725-4.706V4.722C53.904,2.112,51.77,0,49.18,0 M51.536,32.735H27.468V4.722c0-1.313,1.062-2.375,2.365-2.375
	h1.414H49.18c1.3,0,2.356,1.062,2.356,2.375V32.735z M51.536,64.16c0,1.306-1.057,2.359-2.356,2.359H29.833
	c-1.304,0-2.365-1.054-2.365-2.359V35.083h24.068V64.16z"/>
<path fill="#00AFB0" d="M35.604,43.245h7.817c0.643,0,1.161-0.52,1.161-1.174c0-0.646-0.519-1.173-1.161-1.173h-7.817
	c-0.663,0-1.187,0.526-1.187,1.173C34.418,42.726,34.941,43.245,35.604,43.245"/>
<path fill="#00AFB0" d="M35.604,60.483h7.817c0.643,0,1.161-0.537,1.161-1.175c0-0.657-0.519-1.185-1.161-1.185h-7.817
	c-0.663,0-1.187,0.527-1.187,1.185C34.418,59.946,34.941,60.483,35.604,60.483"/>
<path fill="#00AFB0" d="M35.604,51.864h7.817c0.643,0,1.161-0.52,1.161-1.174s-0.519-1.185-1.161-1.185h-7.817
	c-0.663,0-1.187,0.53-1.187,1.185S34.941,51.864,35.604,51.864"/>
<path fill="#FFF4EA" d="M76.178,11.079H60.509c-1.061,0-1.917,0.865-1.917,1.926v26.487h19.502V13.005
	C78.094,11.944,77.227,11.079,76.178,11.079"/>
<path fill="#00AFB0" d="M76.177,9.18H61.653h-1.146c-2.109,0-3.823,1.714-3.823,3.825v51.937c0,2.109,1.714,3.827,3.823,3.827
	h15.669c2.099,0,3.823-1.718,3.823-3.827V13.005C80,10.894,78.275,9.18,76.177,9.18 M78.094,39.492H58.592V13.005
	c0-1.061,0.856-1.926,1.916-1.926h1.146h14.523c1.05,0,1.917,0.865,1.917,1.926V39.492z M78.094,64.941
	c0,1.058-0.867,1.922-1.917,1.922H60.508c-1.06,0-1.916-0.864-1.916-1.922V41.396h19.502V64.941z"/>
<path fill="#00AFB0" d="M65.187,48.009h6.331c0.52,0,0.943-0.42,0.943-0.958c0-0.53-0.424-0.944-0.943-0.944h-6.331
	c-0.538,0-0.967,0.414-0.967,0.944C64.22,47.589,64.648,48.009,65.187,48.009"/>
<path fill="#00AFB0" d="M65.187,61.97h6.331c0.52,0,0.943-0.438,0.943-0.955c0-0.527-0.424-0.955-0.943-0.955h-6.331
	c-0.538,0-0.967,0.428-0.967,0.955C64.22,61.532,64.648,61.97,65.187,61.97"/>
<path fill="#00AFB0" d="M65.187,54.983h6.331c0.52,0,0.943-0.433,0.943-0.957c0-0.516-0.424-0.953-0.943-0.953h-6.331
	c-0.538,0-0.967,0.438-0.967,0.953C64.22,54.551,64.648,54.983,65.187,54.983"/>
</svg>
