<?xml version="1.0" encoding="utf-8"?>
<!-- Generator: Adobe Illustrator 15.0.0, SVG Export Plug-In  -->
<!DOCTYPE svg PUBLIC "-//W3C//DTD SVG 1.1//EN" "http://www.w3.org/Graphics/SVG/1.1/DTD/svg11.dtd" [
	<!ENTITY ns_flows "http://ns.adobe.com/Flows/1.0/">
]>
<svg version="1.1"
	 xmlns="http://www.w3.org/2000/svg" xmlns:xlink="http://www.w3.org/1999/xlink" xmlns:a="http://ns.adobe.com/AdobeSVGViewerExtensions/3.0/"
	 x="0px" y="0px" width="80px" height="80px" viewBox="0 -8.498 80 80" overflow="visible" enable-background="new 0 -8.498 80 80"
	 xml:space="preserve">
<defs>
</defs>
<path fill="#FFF4EA" d="M73.069,3.439h-2.037H59.469H45.782H34.219H20.52H8.957H6.91c-1.914,0-3.47,1.558-3.47,3.469v11.724h73.12
	V6.908C76.56,4.997,75.004,3.439,73.069,3.439"/>
<path fill="#00AFB0" d="M73.069,0H8.956H6.91C3.092,0,0,3.095,0,6.908v57.674c0,3.813,3.092,6.92,6.91,6.92h66.16
	c3.825,0,6.931-3.106,6.931-6.92V6.908C80,3.095,76.895,0,73.069,0 M76.561,18.632H3.44V6.908c0-1.913,1.556-3.469,3.469-3.469
	h2.046h11.563h13.7h11.562h13.688h11.562h2.038c1.935,0,3.491,1.557,3.491,3.469V18.632z M14.622,29.327
	c0.492-0.491,1.273-0.491,1.751,0c0.492,0.478,0.492,1.263,0,1.759l-2.629,2.625c-0.492,0.479-1.277,0.48-1.755,0
	c-0.476-0.478-0.476-1.259,0-1.755L14.622,29.327z M76.561,64.582c0,1.925-1.557,3.481-3.491,3.481H6.91
	c-1.914,0-3.469-1.557-3.469-3.481V22.071h73.12V64.582z M10.534,32.271c-0.5-0.479-0.5-1.263,0-1.753
	c0.479-0.479,1.264-0.479,1.744,0l1.429,1.439c0.5,0.495,0.5,1.276,0,1.754c-0.469,0.48-1.254,0.48-1.744,0.001L10.534,32.271z
	 M14.622,42.596c0.492-0.504,1.273-0.504,1.751,0c0.492,0.481,0.492,1.263,0,1.742l-2.629,2.646c-0.492,0.475-1.277,0.476-1.755,0
	c-0.476-0.481-0.476-1.291,0-1.769L14.622,42.596z M10.534,45.528c-0.5-0.477-0.5-1.264,0-1.742c0.479-0.475,1.264-0.475,1.744,0
	l1.429,1.429c0.5,0.504,0.5,1.287,0,1.769c-0.469,0.476-1.254,0.476-1.744,0L10.534,45.528z M14.622,54.902
	c0.492-0.485,1.273-0.485,1.751,0c0.492,0.472,0.492,1.257,0,1.762l-2.629,2.616c-0.492,0.503-1.277,0.504-1.755,0
	c-0.476-0.478-0.476-1.262,0-1.742L14.622,54.902z M10.534,57.854c-0.5-0.479-0.5-1.262,0-1.742c0.479-0.504,1.264-0.504,1.744,0
	l1.429,1.427c0.5,0.48,0.5,1.264,0,1.741c-0.469,0.505-1.254,0.505-1.744,0L10.534,57.854z"/>
<path fill="#00AFB0" d="M22.858,34.015h46.149c0.975,0,1.719-0.776,1.719-1.719c0-0.961-0.744-1.719-1.719-1.719H22.858
	c-0.948,0-1.729,0.758-1.729,1.719C21.128,33.238,21.91,34.015,22.858,34.015"/>
<path fill="#00AFB0" d="M22.858,59.199h46.149c0.975,0,1.719-0.773,1.719-1.719c0-0.946-0.744-1.719-1.719-1.719H22.858
	c-0.948,0-1.729,0.772-1.729,1.719C21.128,58.426,21.91,59.199,22.858,59.199"/>
<path fill="#00AFB0" d="M22.858,46.606h46.149c0.975,0,1.719-0.773,1.719-1.72c0-0.947-0.744-1.72-1.719-1.72H22.858
	c-0.948,0-1.729,0.772-1.729,1.72C21.128,45.833,21.91,46.606,22.858,46.606"/>
</svg>
