<?xml version="1.0" encoding="utf-8"?>
<!-- Generator: Adobe Illustrator 15.0.0, SVG Export Plug-In  -->
<!DOCTYPE svg PUBLIC "-//W3C//DTD SVG 1.1//EN" "http://www.w3.org/Graphics/SVG/1.1/DTD/svg11.dtd" [
	<!ENTITY ns_flows "http://ns.adobe.com/Flows/1.0/">
]>
<svg version="1.1"
	 xmlns="http://www.w3.org/2000/svg" xmlns:xlink="http://www.w3.org/1999/xlink" xmlns:a="http://ns.adobe.com/AdobeSVGViewerExtensions/3.0/"
	 x="0px" y="0px" width="80px" height="80px" viewBox="-13.832 -1 80 80"
	 overflow="visible" enable-background="new -13.832 -1 80 80" xml:space="preserve">
<defs>
</defs>
<path fill="#FFF4EA" d="M32.875,5.228c-0.362-1.432-1.572-2.466-2.882-2.466c-1.003,0-1.893,0.593-2.577,1.719
	c-0.234,0.412-0.692,0.661-1.173,0.661c-0.48,0-0.925-0.25-1.181-0.661c-0.677-1.126-1.569-1.719-2.564-1.719
	c-1.308,0-2.512,1.034-2.88,2.466c-0.276,1.104-0.603,4.942,6.625,9.116C33.474,10.17,33.15,6.333,32.875,5.228"/>
<path fill="#3EBAC4" d="M30.418,14.876c1.693-1.285,3.008-2.649,3.91-4.095c1.653-2.636,1.578-4.845,1.207-6.237
	C34.855,1.867,32.586,0,29.993,0c-1.379,0-2.686,0.555-3.749,1.565C25.182,0.555,23.882,0,22.497,0
	c-2.586,0-4.869,1.867-5.552,4.544c-0.349,1.392-0.426,3.602,1.226,6.238c0.905,1.446,2.205,2.81,3.892,4.095
	C9.571,16.889,0,27.739,0,40.789v31.887C0,75.092,2.584,77,5.886,77c3.304,0,5.886-1.908,5.886-4.324V44.14
	c5.967-1.667,9.63-5.185,11.815-8.396c1.21-1.774,2.06-3.572,2.658-5.168c0.599,1.596,1.458,3.394,2.669,5.168
	c2.181,3.211,5.837,6.73,11.806,8.396v28.536c0,2.416,2.581,4.324,5.879,4.324c3.299,0,5.893-1.908,5.893-4.324V40.789
	C52.492,27.738,42.91,16.888,30.418,14.876 M19.616,5.228c0.37-1.432,1.574-2.466,2.881-2.466c0.996,0,1.889,0.593,2.565,1.719
	c0.256,0.412,0.702,0.661,1.182,0.661c0.481,0,0.938-0.25,1.173-0.661c0.683-1.126,1.573-1.719,2.576-1.719
	c1.31,0,2.521,1.034,2.883,2.466c0.274,1.104,0.599,4.942-6.632,9.116C19.015,10.17,19.341,6.333,19.616,5.228 M9.011,72.676
	c0,0.634-1.212,1.575-3.125,1.575s-3.125-0.941-3.125-1.575v-5.414h6.25V72.676z M9.011,64.499h-6.25v-8.112h6.25V64.499z
	 M9.011,53.638h-6.25v-8.556c0.493,0.016,0.982,0.029,1.455,0.029c1.726,0,3.325-0.128,4.795-0.37V53.638z M21.302,34.195
	c-2.359,3.46-5.549,5.829-9.53,7.092v-0.498c0-7.421,5.619-13.555,12.833-14.377C24.215,28.206,23.315,31.247,21.302,34.195
	 M24.871,23.614c-8.867,0.702-15.86,8.137-15.86,17.175v1.17c-1.924,0.342-4.016,0.465-6.25,0.356v-1.526
	c0-12.491,9.792-22.726,22.11-23.443V23.614z M40.72,41.285c-3.95-1.249-7.125-3.589-9.475-7.006
	c-2.032-2.956-2.955-6.053-3.355-7.867c7.205,0.824,12.83,6.956,12.83,14.377V41.285z M49.742,72.676
	c0,0.634-1.224,1.575-3.143,1.575c-1.896,0-3.119-0.941-3.119-1.575v-5.414h6.262V72.676z M49.742,64.499H43.48v-8.112h6.262V64.499
	z M49.742,53.638H43.48v-8.896c1.469,0.242,3.07,0.37,4.795,0.37c0.483,0,0.958-0.014,1.467-0.031V53.638z M49.742,42.316
	c-2.254,0.109-4.338-0.018-6.262-0.359v-1.168c0-9.038-6.994-16.473-15.849-17.175v-6.268c12.306,0.717,22.11,10.952,22.11,23.443
	V42.316z"/>
</svg>
