<?xml version="1.0" encoding="utf-8"?>
<!-- Generator: Adobe Illustrator 15.0.0, SVG Export Plug-In  -->
<!DOCTYPE svg PUBLIC "-//W3C//DTD SVG 1.1//EN" "http://www.w3.org/Graphics/SVG/1.1/DTD/svg11.dtd" [
	<!ENTITY ns_flows "http://ns.adobe.com/Flows/1.0/">
]>
<svg version="1.1"
	 xmlns="http://www.w3.org/2000/svg" xmlns:xlink="http://www.w3.org/1999/xlink" xmlns:a="http://ns.adobe.com/AdobeSVGViewerExtensions/3.0/"
	 x="0px" y="0px" width="80px" height="80px" viewBox="-1.49 -3.265 80 80"
	 overflow="visible" enable-background="new -1.49 -3.265 80 80" xml:space="preserve">
<defs>
</defs>
<path fill="#3EBAC4" d="M76.887,26.56h-5.02v-4.675c0-0.892-0.725-1.618-1.621-1.618h-5.728c2.254-2.149,3.662-5.176,3.658-8.533
	C68.167,5.266,62.895,0,56.411,0c-3.138,0.004-6.091,1.226-8.31,3.454c-0.709,0.711-1.319,1.503-1.815,2.347
	C44.239,2.332,40.461,0,36.144,0c-3.138,0.004-6.09,1.226-8.305,3.454c-2.22,2.222-3.438,5.17-3.438,8.317
	c0.007,3.333,1.417,6.355,3.663,8.496h-5.726c-0.897,0-1.622,0.726-1.622,1.618v5.917h-5.044c-0.9,0-1.623,0.724-1.623,1.621v0.735
	L2.427,23.451c-0.498-0.29-1.115-0.29-1.616,0C0.304,23.739,0,24.274,0,24.851v19.593c0,0.579,0.304,1.116,0.811,1.406
	c0.25,0.145,0.529,0.217,0.81,0.217c0.28,0,0.556-0.072,0.807-0.217l11.623-6.706v0.919c0,0.897,0.723,1.622,1.623,1.622h5.044
	v5.731c0,0.893,0.725,1.625,1.622,1.625h16.249v6.372c0,0.894,0.725,1.618,1.622,1.618h1.338l-10.9,15.416
	c-0.518,0.73-0.345,1.741,0.383,2.258c0.291,0.199,0.616,0.298,0.939,0.298c0.508,0,1.007-0.24,1.326-0.688L44.67,58.231v15.15
	c0,0.897,0.725,1.622,1.622,1.622s1.623-0.725,1.623-1.622v-15.15l11.377,16.085c0.311,0.447,0.81,0.688,1.318,0.688
	c0.327,0,0.659-0.099,0.94-0.298c0.731-0.517,0.898-1.527,0.381-2.258L51.037,57.032h1.337c0.898,0,1.623-0.725,1.623-1.618v-6.372
	h16.249c0.896,0,1.621-0.732,1.621-1.625v-4.675h5.02c0.898,0,1.623-0.73,1.623-1.619V28.179
	C78.51,27.286,77.785,26.56,76.887,26.56 M50.399,5.742c1.605-1.609,3.742-2.5,6.033-2.503c4.688,0,8.5,3.816,8.5,8.503
	c0.006,4.693-3.808,8.519-8.498,8.525h-0.002c-4.688,0-8.512-3.813-8.518-8.501C47.912,9.492,48.794,7.351,50.399,5.742
	 M46.295,17.697c0.556,0.95,1.25,1.812,2.041,2.57h-4.088C45.042,19.508,45.74,18.648,46.295,17.697 M27.648,11.766
	c-0.003-2.274,0.88-4.415,2.485-6.024c1.604-1.609,3.741-2.5,6.025-2.503c4.686,0,8.504,3.816,8.511,8.503
	c0.008,4.693-3.808,8.519-8.501,8.525h-0.01C31.47,20.267,27.654,16.454,27.648,11.766 M20.717,38.441h-3.422V31.04h3.422V38.441z
	 M14.05,35.395L3.237,41.643v-13.98l10.812,6.239V35.395z M50.752,53.802h-8.92v-4.76h8.92V53.802z M68.623,45.794H23.961V23.507
	h44.662V45.794z M75.266,39.501h-3.397v-9.7h3.397V39.501z"/>
<rect x="71.914" y="29.659" fill="#FFF4EA" width="3.398" height="9.69"/>
<rect x="41.869" y="48.885" fill="#FFF4EA" width="8.923" height="4.755"/>
<rect x="17.333" y="31.014" fill="#FFF4EA" width="3.424" height="7.397"/>
<polygon fill="#FFF4EA" points="3.296,41.698 14.102,35.461 14.102,33.965 3.296,27.726 "/>
</svg>
